<svg xmlns="http://www.w3.org/2000/svg" width="25" height="33" viewBox="0 0 25 33">
<defs>
    <style>
      .cls-1 {
        fill: #fff;
        fill-rule: evenodd;
      }
    </style>
  </defs>
  <path id="Forma_1" data-name="Forma 1" class="cls-1" d="M24.471,33H0.524a0.509,0.509,0,0,1-.367-0.155,0.5,0.5,0,0,1-.14-0.369L1.158,8.851a0.5,0.5,0,0,1,.507-0.476H23.331a0.5,0.5,0,0,1,.507.476l1.14,23.625a0.5,0.5,0,0,1-.14.369A0.513,0.513,0,0,1,24.471,33Zm-7-22.125V5.905a4.972,4.972,0,0,0-9.944,0v4.97m-1.014,0V5.905a5.986,5.986,0,0,1,11.971,0v4.97"/>
</svg>
